<svg width="64" height="64" viewBox="0 0 64 64" fill="none" xmlns="http://www.w3.org/2000/svg">
  <defs>
    <linearGradient id="redGradient" x1="0%" y1="0%" x2="100%" y2="100%">
      <stop offset="0%" style="stop-color:#DC2626;stop-opacity:1" />
      <stop offset="30%" style="stop-color:#EF4444;stop-opacity:1" />
      <stop offset="70%" style="stop-color:#DC2626;stop-opacity:1" />
      <stop offset="100%" style="stop-color:#B91C1C;stop-opacity:1" />
    </linearGradient>
    <linearGradient id="iconGradient" x1="0%" y1="0%" x2="100%" y2="100%">
      <stop offset="0%" style="stop-color:#FFFFFF;stop-opacity:1" />
      <stop offset="100%" style="stop-color:#F8FAFC;stop-opacity:1" />
    </linearGradient>
    <filter id="shadow" x="-50%" y="-50%" width="200%" height="200%">
      <feDropShadow dx="0" dy="3" stdDeviation="4" flood-color="#000000" flood-opacity="0.25"/>
    </filter>
    <filter id="innerShadow" x="-50%" y="-50%" width="200%" height="200%">
      <feOffset dx="0" dy="1"/>
      <feGaussianBlur stdDeviation="1"/>
      <feFlood flood-color="#000000" flood-opacity="0.1"/>
      <feComposite operator="in" in2="SourceGraphic"/>
    </filter>
  </defs>
  
  <!-- Background rounded rectangle with shadow -->
  <rect x="6" y="6" width="52" height="52" rx="12" ry="12" fill="url(#redGradient)" filter="url(#shadow)"/>
  
  <!-- Inner highlight for premium look -->
  <rect x="7" y="6" width="50" height="1" rx="10" fill="rgba(255,255,255,0.3)"/>
  
  <!-- Film strip icon -->
  <g transform="translate(16, 16)">
    <!-- Main film strip body -->
    <rect x="4" y="4" width="24" height="24" rx="2" ry="2" fill="url(#iconGradient)" filter="url(#innerShadow)"/>
    
    <!-- Film perforations (holes) on left side -->
    <rect x="0" y="7" width="3" height="3" rx="1.5" fill="url(#redGradient)"/>
    <rect x="0" y="12" width="3" height="3" rx="1.5" fill="url(#redGradient)"/>
    <rect x="0" y="17" width="3" height="3" rx="1.5" fill="url(#redGradient)"/>
    <rect x="0" y="22" width="3" height="3" rx="1.5" fill="url(#redGradient)"/>
    
    <!-- Film perforations (holes) on right side -->
    <rect x="29" y="7" width="3" height="3" rx="1.5" fill="url(#redGradient)"/>
    <rect x="29" y="12" width="3" height="3" rx="1.5" fill="url(#redGradient)"/>
    <rect x="29" y="17" width="3" height="3" rx="1.5" fill="url(#redGradient)"/>
    <rect x="29" y="22" width="3" height="3" rx="1.5" fill="url(#redGradient)"/>
    
    <!-- Film frames with subtle gradients -->
    <rect x="7" y="7" width="18" height="4" rx="1" fill="rgba(220, 38, 38, 0.15)"/>
    <rect x="7" y="13" width="18" height="4" rx="1" fill="rgba(220, 38, 38, 0.15)"/>
    <rect x="7" y="19" width="18" height="4" rx="1" fill="rgba(220, 38, 38, 0.15)"/>
    
    <!-- Center play/film symbol with premium styling -->
    <circle cx="16" cy="16" r="5" fill="url(#redGradient)" opacity="0.9" filter="url(#shadow)"/>
    <circle cx="16" cy="16" r="4.5" fill="none" stroke="rgba(255,255,255,0.2)" stroke-width="0.5"/>
    <polygon points="13.5,13 13.5,19 19,16" fill="url(#iconGradient)" filter="url(#innerShadow)"/>
    
    <!-- Highlight on play button -->
    <polygon points="13.5,13 13.5,14 18,15.5 18.5,16 13.5,13" fill="rgba(255,255,255,0.4)"/>
  </g>
  
  <!-- Premium gloss effect -->
  <rect x="6" y="6" width="52" height="26" rx="12" fill="url(#iconGradient)" opacity="0.1"/>
</svg>
